<?xml version="1.0" encoding="utf-8"?>
<!-- Generator: Adobe Illustrator 24.2.3, SVG Export Plug-In . SVG Version: 6.00 Build 0)  -->
<svg version="1.1" id="Layer_1" xmlns="http://www.w3.org/2000/svg" xmlns:xlink="http://www.w3.org/1999/xlink" x="0px" y="0px"
	 viewBox="0 0 260 67.7" style="enable-background:new 0 0 260 67.7;" xml:space="preserve">
<style type="text/css">
	.st0{fill:url(#SVGID_1_);}
	.st1{fill:url(#SVGID_2_);}
	.st2{fill:url(#SVGID_3_);}
	.st3{fill:none;stroke:#60C6D1;stroke-width:9.9549;stroke-miterlimit:10;}
	.st4{fill:#A8AAAD;}
	.st5{fill:#6F7072;}
</style>
<g>
	<g>
		<g>
			<g>
				<g>
					
						<linearGradient id="SVGID_1_" gradientUnits="userSpaceOnUse" x1="311.9546" y1="-125.1009" x2="335.5527" y2="-125.1009" gradientTransform="matrix(1 0 0 -1 -266 -79.0625)">
						<stop  offset="0" style="stop-color:#AF5D90"/>
						<stop  offset="1" style="stop-color:#619C9B"/>
					</linearGradient>
					<path class="st0" d="M53.5,60.9c-4.6,0-9-1.8-12.3-5.1l7.1-7.1c1.3,1.3,3.3,2.2,5.3,2.2c2,0,3.8-0.7,5.3-2.2
						c1.3-1.3,2.2-3.3,2.2-5.3c0-2-0.7-3.8-2.2-5.3l7.1-7.1c3.3,3.3,5.1,7.7,5.1,12.3s-1.8,9-5.1,12.3
						C62.6,59.1,58.2,60.9,53.5,60.9z"/>
				</g>
				<g>
					
						<linearGradient id="SVGID_2_" gradientUnits="userSpaceOnUse" x1="272.8165" y1="-125.1641" x2="315.1242" y2="-115.1814" gradientTransform="matrix(1 0 0 -1 -266 -79.0625)">
						<stop  offset="0" style="stop-color:#F16074"/>
						<stop  offset="1" style="stop-color:#F7A16A"/>
					</linearGradient>
					<path class="st1" d="M18.5,60.8c-4.5,0-8.9-1.7-12.3-5.1c-6.8-6.8-6.8-17.8,0-24.7s17.8-6.8,24.7,0l-7.1,7.1
						c-2.9-2.9-7.6-2.9-10.5,0s-2.9,7.6,0,10.5c2.9,2.9,7.6,2.9,10.5,0l17.6-17.5l7.1,7.1L30.8,55.8C27.4,59.1,22.9,60.8,18.5,60.8z
						"/>
				</g>
				<g>
					
						<linearGradient id="SVGID_3_" gradientUnits="userSpaceOnUse" x1="290.5631" y1="-93.4784" x2="324.3141" y2="-93.4784" gradientTransform="matrix(1 0 0 -1 -266 -79.0625)">
						<stop  offset="0" style="stop-color:#F7B939"/>
						<stop  offset="1" style="stop-color:#98CEAD"/>
					</linearGradient>
					<path class="st2" d="M62.6,23h-10c0-3.9-3.2-7.1-7.1-7.1s-7.1,3.2-7.1,7.1h-10c0-9.4,7.7-17.1,17.1-17.1S62.6,13.6,62.6,23z"/>
				</g>
				<g>
					<path class="st3" d="M59.3,39.9"/>
				</g>
			</g>
			<g>
				<g>
					<path class="st4" d="M80.7,35.3c0-4.3,2.6-5.3,5.7-5.3c1.6,0,6.2,0.6,7.3,0.7v1.7c-1.8-0.1-7.3-0.2-7.3-0.2
						c-2.1-0.1-3.7,0.1-3.7,3.1v2c0,2.7,1.2,2.8,2.9,2.8h4.2c3.9,0,4.5,2.7,4.5,5v2c0,4.2-3.1,4.8-5.9,4.8c-1.5,0-6-0.5-7.3-0.7
						v-1.7c1.2,0.1,4.6,0.4,7.3,0.4c1.2,0,3.8,0,3.8-2.7v-2c0-1.7-0.5-2.8-2.4-2.8h-4.2c-4.6,0-5.3-2.6-5.3-5v-2H80.7z"/>
					<path class="st4" d="M104.2,30.3h2.2l7.6,21.4h-2.6l-1.8-6H101l-2,6h-2.8L104.2,30.3z M108.7,43.5l-3.4-10l-3.5,10H108.7z"/>
					<path class="st4" d="M116,34.1c0-2.8,1.7-3.9,3.7-3.8l9.3,0.5v1.7h-9.3c-1.5,0-1.5,0.9-1.5,1.6v5.9l9.6,0.2v1.7l-9.6,0.4v9.4
						H116V34.1z"/>
					<path class="st4" d="M132.6,34.1c0-2.8,1.7-3.9,3.7-3.8l9.3,0.5v1.7h-9.3c-1.5,0-1.5,0.9-1.5,1.6v5.9l9.6,0.2v1.7l-9.6,0.2V48
						c0,1.6,1,1.5,1.8,1.5h8.9v1.7l-8.9,0.5c-2,0.1-4-0.4-4-3.7V34.1z"/>
					<path class="st4" d="M148.1,30.3H163v2.2h-6.5v19.3h-2.2V32.4h-6.2C148.1,32.4,148.1,30.3,148.1,30.3z"/>
					<path class="st4" d="M167.4,30.3l5.5,11.2l6.1-11.2h2.3l-7.4,13.8v7.6h-2v-7.6l-6.8-13.8H167.4z"/>
				</g>
				<g>
					<path class="st5" d="M185.3,30.3h10c5.9,0,7.3,4.8,7.3,10.7c0,7.4-2.4,10.6-7.3,10.6h-10V30.3z M194.8,46.9
						c1.7,0,2.2-1.7,2.2-5.9c0-5.3-0.9-6-2.2-6H191v11.8H194.8z"/>
					<path class="st5" d="M213.2,30.2c5,0,8.9,1,8.9,11c0,9.4-3.5,10.6-8.9,10.6c-5.3,0-8.9-1-8.9-10.6
						C204.4,31,208.3,30.2,213.2,30.2z M213.2,46.6c2.6,0,3.2-1.1,3.2-5.6c0-5-0.5-5.9-3.2-5.9c-2.6,0-3.2,0.7-3.2,5.9
						C210,45.6,210.4,46.6,213.2,46.6z"/>
					<path class="st5" d="M231,30c4.2,0,5.3,0.2,7.7,1.2v4.4c0,0-2.9-0.5-6-0.5c-2.4,0-3.4-0.1-3.4,5.9c0,4.8,0.6,5.7,3.5,5.7
						c3.1,0,6-0.2,6-0.2v4.4c-1.8,0.7-3.4,1-7.7,1c-5.4-0.1-7.4-3.8-7.4-11C223.6,34.1,225.2,30,231,30z"/>
					<path class="st5" d="M240.3,35.9c0-3.8,2.6-5.6,5.7-5.7c4.3-0.2,7,0.1,9,1v4.4c-1.8-0.2-5.1-0.2-7-0.2c-1.6,0-2.2,0-2.2,1.3V37
						c0,0.9,0.1,1.3,1.7,1.3h2.7c4.4,0,5.5,3.9,5.5,6.2v1c0,5.5-3.1,6.6-6,6.6c-5.5,0-6.1,0-9-1v-4.4c1.2,0.1,4.9,0.4,7.6,0.4
						c1.2,0,1.7-0.4,1.7-1.2v-0.5c0-0.9-0.2-1.3-1.6-1.3h-2.7c-5.5,0-5.7-4.9-5.7-6.2v-2H240.3z"/>
				</g>
			</g>
		</g>
	</g>
</g>
</svg>
